<svg id="Calque_1" data-name="Calque 1" xmlns="http://www.w3.org/2000/svg" viewBox="0 0 695.12 193.34"><defs><style>.cls-1{fill:#2d2e83;}.cls-2{fill:#be1622;}</style></defs><title>Reosim</title><path class="cls-1" d="M60.45,110.47c9.87,0,16.3.68,22.15,3.12,55.73,23.19,77.8,113.26,193,124.17-5.19,5.88-35.74,12.93-54.94,9.43C168.44,236.2,111.85,121.46,60.45,110.47Z" transform="translate(-55.61 -54.79)"/><path class="cls-1" d="M174.67,55.26c-3.63,1-1.81,10.07-2.46,18.31-3.42,43-4.16,125.72-116.6,165,17-4.11,30.81-6.9,42.74-12.21,54.86-24.38,67.59-60.66,82.13-108.08,8.14-26.55,19-38.93,18.59-46.37C198.9,65,185.23,52.15,174.67,55.26Z" transform="translate(-55.61 -54.79)"/><path class="cls-1" d="M109.43,72.92c-3,3,20,32.47,28.58,32.48,5.13,0,6-14,1.88-20.54C135.62,78,112.54,70,109.43,72.92Z" transform="translate(-55.61 -54.79)"/><path class="cls-1" d="M301.29,126.2h10.47l.3,16.17h.29q13-17.62,36.59-17.63v9.18q-16.38,0-26.48,8.89t-10.11,23V202H301.29Z" transform="translate(-55.61 -54.79)"/><path class="cls-1" d="M371.65,168.15q.3,12.39,7.67,19.52t19.18,7.14A48.41,48.41,0,0,0,421.06,189l2.95,8.31a59.13,59.13,0,0,1-26.55,6.11q-16.51,0-26.69-10.63t-10.18-28.69q0-18.36,9.51-28.85T396,124.74q15.93,0,24.71,10t8.77,28.63c0,1.26-.1,2.86-.29,4.8Zm0-8.44h47.2q-.15-12.68-6.19-19.52T396,133.34q-11.07,0-17.48,6.92T371.65,159.71Z" transform="translate(-55.61 -54.79)"/><path class="cls-1" d="M506.32,192.77q-9.88,10.64-26.26,10.63t-26.25-10.63q-9.88-10.64-9.88-28.69t9.88-28.7q9.87-10.64,26.25-10.64t26.26,10.64q9.88,10.63,9.88,28.7T506.32,192.77Zm-7.89-51.2q-6.72-8.08-18.37-8.08t-18.36,8.08Q455,149.66,455,164.08t6.71,22.5q6.71,8.08,18.36,8.09t18.37-8.09q6.7-8.09,6.71-22.5T498.43,141.57Z" transform="translate(-55.61 -54.79)"/><path class="cls-1" d="M559.12,124.74a58.52,58.52,0,0,1,26,5.83l-2.37,8.6a52.06,52.06,0,0,0-23.6-5.68q-8.55,0-13,3a9.82,9.82,0,0,0-4.5,8.6,10,10,0,0,0,3.91,8.3q3.9,3.06,14.23,4.81,15,2.48,21.61,8.16T587.89,182a18.59,18.59,0,0,1-7.6,15.66q-7.6,5.76-21.17,5.75a55.3,55.3,0,0,1-28.32-7.28l2.51-8.59a49.94,49.94,0,0,0,25.81,7.14q8.57,0,13.13-3.28a12,12,0,0,0,.52-18.43q-4.07-3.19-14.24-5-14.74-2.62-21.24-8.09t-6.49-14.78a17.59,17.59,0,0,1,7.45-14.86Q545.71,124.75,559.12,124.74Z" transform="translate(-55.61 -54.79)"/><path class="cls-1" d="M653.38,126.2H663.7l.15,12.53h.3q8.1-14,20.2-14,14.76,0,20.65,14.57h.3q7.82-14.57,22.27-14.57,12,0,17.56,6.92t5.6,22.22V202H740.11V156.79q0-13.24-3.39-18.28t-11.51-5q-7.08,0-12.39,7t-5.31,17V202H696.89V156.79q0-13.11-3.46-18.21t-11.58-5.09q-6.65,0-12.17,7.64a30.36,30.36,0,0,0-5.53,18.28V202H653.38Z" transform="translate(-55.61 -54.79)"/><rect class="cls-1" x="557.8" y="71.41" width="11.36" height="75.75"/><rect class="cls-2" x="557.8" y="37.91" width="11.36" height="16.02"/></svg>